<svg xmlns="http://www.w3.org/2000/svg" xmlns:xlink="http://www.w3.org/1999/xlink" width="19" height="18" viewBox="0 0 19 18"><defs><path id="vllea" d="M386.835 4757.215a3.343 3.343 0 0 0-1.001-2.34 3.385 3.385 0 0 0-2.41-.984c-.085 0-.17.016-.255.016h-.05c-.103 0-.188.016-.29.033-.203.051-.424-.1-.458-.317-.05-.2.102-.418.323-.452l.356-.05c.136-.016.255-.016.374-.016.356 0 .73.05 1.069.134.73.2 1.375.568 1.901 1.086.425.434.781.953.985 1.537.153.45.237.919.237 1.403v.184c-.017.084-.017.134-.017.184a.413.413 0 0 1-.441.368.41.41 0 0 1-.373-.435c.017-.067.017-.117.05-.167v-.184zm2.292.201v-.167c0-.736-.153-1.437-.407-2.071a5.72 5.72 0 0 0-1.273-1.89 5.66 5.66 0 0 0-2.394-1.403 5.934 5.934 0 0 0-1.646-.234c-.153 0-.323 0-.493.017-.05 0-.101.016-.152.016-.12.017-.221.034-.34.05-.204.05-.424-.1-.458-.316-.051-.202.102-.418.322-.452.187-.034.374-.05.56-.067.187-.017.374-.017.56-.017a6.483 6.483 0 0 1 4.6 1.872 6.317 6.317 0 0 1 1.817 3.459c.051.35.085.702.085 1.07 0 .183 0 .367-.017.55a.41.41 0 0 1-.815-.067c0-.116.017-.217.051-.35zm3.106-.133c0 .233-.017.483-.034.734a.413.413 0 0 1-.44.369.41.41 0 0 1-.374-.435c0-.117.017-.218.017-.318v-.368c0-2.189-.9-4.16-2.343-5.581a8.118 8.118 0 0 0-5.67-2.306c-.237 0-.458.017-.695.033-.12 0-.238.018-.357.034-.119.017-.22.034-.34.05-.203.05-.424-.1-.458-.316-.05-.202.102-.419.323-.452.255-.05.51-.084.764-.1s.509-.034.764-.034c2.444 0 4.65.97 6.263 2.556a8.586 8.586 0 0 1 2.58 6.134zm-2.19 7.534c-5.194 2.793-14.513-5.663-15.26-10.894-.288-2.12 3.226-6.667 4.482-3.826l1.34 2.958c.629 1.654-1.306 2.089-1.272 2.957.017.568 1.476 2.323 1.816 2.691.713.769 2.903 2.456 4.074 2.74.56.133 1.035-.569 1.29-.835 1.052-1.103 1.086-1.454 2.088-.92l3.004 1.588c1.155.684-.407 2.908-1.561 3.541z"/></defs><g><g transform="translate(-374 -4748)"><use fill="#ffb100" xlink:href="#vllea"/></g></g></svg>