<?xml version="1.0" encoding="UTF-8"?>
<!DOCTYPE svg  PUBLIC '-//W3C//DTD SVG 1.1//EN'  'http://www.w3.org/Graphics/SVG/1.1/DTD/svg11.dtd'>
<svg enable-background="new 0 0 500 480" version="1.1" viewBox="0 0 500 480" xml:space="preserve" xmlns="http://www.w3.org/2000/svg">
	<g fill="#878787">
		<path d="m209.83 31v417.16h-127.67v-417.16h-32.167v449h400v-449h-240.17zm32.164 32.999h176v96.333h-176v-96.333zm80.225 368.42h-32v-32h32v32zm0-48.25h-32v-32h32v32zm0-48h-32v-32h32v32zm0-48.166h-32v-32h32v32zm47.889 144.42h-32v-32h32v32zm0-48.25h-32v-32h32v32zm0-48h-32v-32h32v32zm0-48.166h-32v-32h32v32zm47.945 144.42h-32v-32h32v32zm0-48.25h-32v-32h32v32zm0-48h-32v-32h32v32zm0-48.166h-32v-32h32v32z"/>
		<rect x="98" y=".063" width="96.333" height="431.92"/>
	</g>
</svg>
