<?xml version="1.0" encoding="UTF-8"?>
<!DOCTYPE svg  PUBLIC '-//W3C//DTD SVG 1.1//EN'  'http://www.w3.org/Graphics/SVG/1.1/DTD/svg11.dtd'>
<svg enable-background="new 0 0 500 480" version="1.1" viewBox="0 0 500 480" xml:space="preserve" xmlns="http://www.w3.org/2000/svg">
			<path d="m10.497 440.48c0 22.079 17.94 40.02 40 40.02 13.981 0 27.142-5.44 37.061-15.36l253.26-260.34c7.561-7.781 18.8-10.86 29.221-8.041 9.5 2.54 16.001 3.74 20.46 3.74 27.42 0 53.94-11.44 72.78-31.421 19.08-20.24 28.701-46.72 27.041-74.6-0.2-3.461-2.181-6.541-5.2-8.201-3.12-1.7-7.28-1.82-10.34 0l-54.701 32.82c-16.641-8.601-27.5-24.74-29.32-43.12l61.121-36.66c2.8-1.681 4.601-4.621 4.84-7.88 0.22-3.259-1.16-6.4-3.7-8.459-17.6-14.22-38.48-21.98-60.4-22.46-24.2-0.3-48.76 9.701-67.881 28.821-24.499 24.48-34.419 56.72-28.64 93.18 1.54 9.78-1.68 19.66-8.62 26.42l-261.54 254.4c-10 9.999-15.44 23.159-15.441 37.14z" fill="#878787"/>
			<path d="m11.558 34.977l40 80c1.7 3.379 5.16 5.52 8.941 5.52h25.859l99.461 99.441 44.721-43.5-100.04-100.08v-25.86c0-3.78-2.141-7.24-5.521-8.94l-80.001-40c-3.859-1.92-8.499-1.18-11.539 1.88l-20.001 20c-3.06 3.039-3.821 7.699-1.88 11.54z" fill="#878787"/>
			<path d="m260.1 316.48c0.18 1.34 0.4 2.68 0.4 4.04 0 2.681 1.08 5.24 3 7.12 2.119 2.28 125.58 135.54 125.58 135.54 11.259 11.261 25.879 17.32 41.419 17.32 15.401 0 30.401-6.22 41.222-17.04l1.859-1.94c10.699-10.7 16.92-25.7 16.92-41.02 0-15.4-6.221-30.401-17.061-41.221l-137.96-124.48c-1.84-1.66-4.22-2.579-6.7-2.579-1.92 0-3.8-0.2-5.64-0.541l-63.039 64.801z" fill="#878787"/>
</svg>
