<?xml version="1.0" encoding="UTF-8"?>
<!DOCTYPE svg  PUBLIC '-//W3C//DTD SVG 1.1//EN'  'http://www.w3.org/Graphics/SVG/1.1/DTD/svg11.dtd'>
<svg enable-background="new 0 0 500 480" version="1.1" viewBox="0 0 500 480" xml:space="preserve" xmlns="http://www.w3.org/2000/svg">
<g fill="#878787">
	<path d="m349.5 175.5h-200c-4.416 0-8 3.576-8 8s3.584 8 8 8h200c4.416 0 8-3.576 8-8s-3.584-8-8-8z"/>
	<path d="m149.5 127.5h80c4.416 0 8-3.576 8-8s-3.584-8-8-8h-80c-4.416 0-8 3.576-8 8s3.584 8 8 8z"/>
	<path d="m349.5 239.5h-200c-4.416 0-8 3.576-8 8s3.584 8 8 8h200c4.416 0 8-3.576 8-8s-3.584-8-8-8z"/>
	<path d="m349.5 303.5h-200c-4.416 0-8 3.576-8 8s3.584 8 8 8h200c4.416 0 8-3.576 8-8s-3.584-8-8-8z"/>
	<path d="m349.5 367.5h-200c-4.416 0-8 3.576-8 8s3.584 8 8 8h200c4.416 0 8-3.576 8-8s-3.584-8-8-8z"/>
	<path d="M320.813-0.5H61.5v480h376V116.188L320.813-0.5z M77.5,463.5v-448h232v112h112v336H77.5z"/>
</g>
</svg>
