<?xml version="1.0" encoding="UTF-8"?>
<!DOCTYPE svg  PUBLIC '-//W3C//DTD SVG 1.1//EN'  'http://www.w3.org/Graphics/SVG/1.1/DTD/svg11.dtd'>
<svg enable-background="new 0 0 500 480" version="1.1" viewBox="0 0 500 480" xml:space="preserve" xmlns="http://www.w3.org/2000/svg">
<g fill="#878787">
	<path d="m200.03 288.3c-25.149-25.149-27.981-34.859-40.421-58.774l-137.35-137.51c-40.507 40.507 10.391 157.08 113.68 260.38 79.206 79.207 166.22 127.6 220.75 127.6 16.584 0 30.169-4.477 39.614-13.923l-131.13-130.97c-23.916-12.441-40.005-21.644-65.155-46.801z"/>
	<path d="m177.05 204.6c0.93 0.931 1.993 1.127 2.72 1.127 0.728 0 1.79-0.196 2.725-1.127l66.007-66.008c0.93-0.928 1.128-1.992 1.128-2.72 0-0.729-0.198-1.792-1.128-2.719l-132.02-132.02c-0.724-0.728-1.692-1.127-2.718-1.127-1.013 0-2.005 0.411-2.72 1.127l-66.013 66.011c-1.5 1.501-1.5 3.942 0 5.443l132.02 132.02z"/>
	<path d="m490.53 375.19l-132.02-132.02c-0.715-0.717-1.707-1.127-2.719-1.127-1.027 0-1.994 0.398-2.723 1.127l-66.008 66.008c-0.716 0.718-1.128 1.71-1.128 2.72 0 1.028 0.399 1.995 1.129 2.724l132.02 132.02c1.439 1.445 3.999 1.441 5.44 0l66.009-66.008c1.499-1.501 1.499-3.946 1e-3 -5.444z"/>
</g>
</svg>
