<?xml version="1.0" encoding="UTF-8"?>
<!DOCTYPE svg  PUBLIC '-//W3C//DTD SVG 1.1//EN'  'http://www.w3.org/Graphics/SVG/1.1/DTD/svg11.dtd'>
<svg enable-background="new 0 0 500 480" version="1.1" viewBox="0 0 500 480" xml:space="preserve" xmlns="http://www.w3.org/2000/svg">
<g fill="#878787">
	<path d="m490 217.25c0-8.317-5.97-15.363-14.287-16.831l-44.624-7.535c-4.306-16.832-11.059-32.979-20.062-48.245l26.227-36.795c4.893-6.851 4.11-16.146-1.859-22.116l-15.854-15.854-15.853-15.755c-5.97-5.383-15.267-6.165-22.019-1.37l-36.794 26.324c-15.267-9.003-31.413-15.657-48.245-19.964l-7.633-44.623c-1.468-8.318-8.612-14.288-16.832-14.288h-44.624c-8.318 0-15.364 5.97-16.832 14.288l-7.535 44.722c-17.125 4.306-33.664 11.155-49.223 20.746l-36.6-25.933c-6.85-4.894-16.146-4.11-22.116 1.859l-15.657 15.658-15.853 15.853c-5.872 5.872-6.654 15.267-1.859 22.116l26.422 37.187c-9.003 15.267-15.364 31.707-19.67 48.245l-44.33 7.046c-8.319 1.467-14.288 8.611-14.288 16.831v44.625c0 8.318 5.969 15.363 14.288 16.832l44.917 7.535c4.403 16.733 11.156 32.783 20.257 47.951l-25.933 36.6c-4.893 6.85-4.11 16.146 1.859 22.115l15.854 15.854 15.853 15.854c5.872 5.871 15.266 6.654 22.116 1.859l37.187-26.422c15.266 9.002 31.707 15.363 48.245 19.669l7.438 44.232c1.468 8.318 8.611 14.288 16.832 14.288h44.625c8.318 0 15.363-5.97 16.832-14.288l7.535-44.917c16.244-4.307 32.293-10.863 46.973-19.572l36.795 26.227c6.85 4.893 16.146 4.11 22.116-1.859l15.854-15.854 15.853-15.854c5.872-5.871 6.654-15.266 1.859-22.115l-26.324-36.795c9.003-15.267 15.658-31.414 19.964-48.245l44.624-7.634c8.317-1.467 14.287-8.611 14.287-16.831v-22.313l0.094-22.508zm-164.99 95.023c-40.611 40.709-106.57 40.709-147.18 0.098-40.709-40.611-40.709-106.57-0.098-147.18 40.611-40.611 106.57-40.71 147.18-0.098 40.71 40.611 40.808 106.47 0.098 147.18z"/>
	<circle cx="251.42" cy="238.78" r="61.456"/>
</g>
</svg>
