<?xml version="1.0" encoding="UTF-8"?>
<!DOCTYPE svg  PUBLIC '-//W3C//DTD SVG 1.1//EN'  'http://www.w3.org/Graphics/SVG/1.1/DTD/svg11.dtd'>
<svg enable-background="new 0 0 500 480" version="1.1" viewBox="0 0 500 480" xml:space="preserve" xmlns="http://www.w3.org/2000/svg">
<polygon points="435.5 369 435.5 240 268.5 240 268.5 111 305.5 111 305.5 0 194.5 0 194.5 111 231.5 111 231.5 240 64.375 240 64.375 369 27.375 369 27.375 480 138.38 480 138.38 369 101.38 369 101.38 277 231.5 277 231.5 369 194.5 369 194.5 480 305.5 480 305.5 369 268.5 369 268.5 277 398.5 277 398.5 369 361.5 369 361.5 480 472.5 480 472.5 369" fill="#878787"/>
</svg>
