<?xml version="1.0" encoding="UTF-8"?>
<!DOCTYPE svg  PUBLIC '-//W3C//DTD SVG 1.1//EN'  'http://www.w3.org/Graphics/SVG/1.1/DTD/svg11.dtd'>
<svg enable-background="new 0 0 500 480" version="1.1" viewBox="0 0 500 480" xml:space="preserve" xmlns="http://www.w3.org/2000/svg">
	<g fill="#878787">
		<path d="m450.53 401.9c-1.957-2.231-4.729-4.418-8.299-6.563-0.538-0.35-2.01-1.2-4.41-2.532-2.407-1.341-4.327-2.501-5.764-3.486-1.426-0.982-3.3-2.678-5.624-5.089-2.319-2.407-4.147-4.956-5.491-7.635-1.337-2.675-2.633-6.289-3.884-10.846-1.252-4.555-1.959-9.598-2.143-15.135-2.501 2.136-3.881 6.377-4.149 12.72-0.27 6.339 1.071 12.808 4.02 19.415 2.942 6.609 7.364 10.889 13.255 12.857 5.711 1.968 10.309 4.061 13.795 6.292 3.478 2.235 5.715 4.775 6.697 7.632 0.982 2.863-0.675 5.941-4.956 9.241-4.29 3.308-11.163 6.563-20.624 9.788-13.035 4.458-22.277 8.257-27.727 11.377-5.443 3.128-13.431 9.066-23.968 17.812-7.146 5.893-14.733 9.066-22.771 9.514-8.029 0.448-14.553-2.498-19.549-8.836-5.002-6.338-6.613-15.307-4.824-26.92 3.393-22.318 3.309-39.729-0.261-52.227-2.858-9.821-3.486-18.482-1.874-25.982 1.604-7.492 4.103-11.863 7.499-13.117 3.383-1.255 7.051 1.427 10.979 8.03 0.35 0.892 1.158 2.633 2.403 5.223 1.248 2.587 2.274 4.425 3.084 5.49 0.805 1.073 2.009 2.456 3.617 4.155 1.605 1.7 3.624 2.902 6.028 3.62 2.409 0.713 5.218 1.158 8.438 1.336 6.07 0.176 11.513-1.072 16.339-3.75 4.818-2.678 8.439-5.669 10.847-8.972 2.407-3.307 4.822-6.473 7.23-9.511 2.407-3.04 4.507-4.735 6.296-5.094 1.962-0.351 3.748-2.316 5.357-5.893 1.606-3.569 2.677-8.523 3.214-14.86 0.54-6.342 0.09-13.885-1.336-22.631-2.681-15.541-7.996-32.591-15.939-51.161-7.948-18.571-16.827-33.124-26.65-43.66-17.676-18.746-29.545-38.209-35.621-58.388-6.244-21.247-8.92-40.354-8.031-57.318 0.896-12.143-1.738-25.313-7.896-39.509-6.157-14.195-14.331-25.043-24.509-32.542-6.428-4.819-14.376-8.524-23.835-11.115-9.463-2.591-18.931-3.792-28.395-3.616-11.604 0-20.892 1.874-27.853 5.625-14.285 7.68-23.746 17.009-28.392 27.99-4.645 10.979-6.784 24.506-6.43 40.577 0.718 35.354 2.143 63.031 4.288 83.028-2.502 9.286-13.571 26.693-33.214 52.228-3.573 3.573-7.056 8.394-10.449 14.465-3.392 6.072-6.071 11.52-8.034 16.337-1.966 4.819-4.599 11.782-7.902 20.891-3.305 9.104-5.668 15.536-7.098 19.283-1.25 3.219-3.215 6.963-5.891 11.256-2.679 4.282-4.827 8.481-6.43 12.581-1.604 4.106-2.499 8.748-2.677 13.927-0.178 3.93 0 7.323 0.537 10.178 0.712 4.291 2.054 5.627 4.016 4.021 8.039-6.071 18.127-2.501 30.268 10.718 8.571 9.284 23.661 30.891 45.266 64.818 1.785 3.034 3.569 6.292 5.354 9.782 1.79 3.479 3.481 8.115 5.09 13.92 1.607 5.811 2.278 11.029 2.009 15.674-0.271 4.646-2.321 8.933-6.161 12.855-3.84 3.926-9.6 6.424-17.276 7.495-4.109 0.535-9.06 0.184-14.866-1.071-5.803-1.25-13.169-3.302-22.095-6.158-8.929-2.854-15.534-4.823-19.82-5.895-6.246-1.432-15.129-3.253-26.648-5.489-11.518-2.235-19.065-3.885-22.635-4.959-6.071-1.604-9.373-3.923-9.907-6.962-0.537-2.501 0.712-6.783 3.75-12.852 3.039-6.07 4.554-10.45 4.554-13.123 0.176-1.97 0.088-3.927-0.27-5.895-0.354-1.964-0.756-3.483-1.204-4.555-0.446-1.07-1.205-2.678-2.277-4.823-1.072-2.142-1.786-3.752-2.143-4.818-3.212-7.504-3.659-12.599-1.338-15.272 1.605-2.321 5.445-3.214 11.516-2.675 9.106 0.893 16.516-0.449 22.23-4.022 9.461-5.891 12.322-15.354 8.57-28.393 0 6.07-1.072 10.62-3.215 13.659-2.143 3.034-5.894 6.161-11.249 9.378-3.034 1.785-8.394 2.854-16.069 3.218-7.677 0.357-12.769 1.608-15.268 3.75-1.784 1.607-2.721 4.019-2.811 7.232-0.088 3.222 0.316 6.473 1.207 9.779 0.892 3.304 1.786 7.094 2.677 11.382 0.894 4.287 1.249 7.862 1.072 10.715-0.178 1.963-1.79 6.833-4.824 14.593-3.034 7.771-3.658 13.707-1.873 17.812 0.894 1.968 2.409 3.71 4.553 5.226 2.142 1.519 5.132 2.813 8.971 3.89 3.836 1.072 7.364 1.919 10.581 2.542 3.212 0.619 7.676 1.427 13.389 2.403 5.714 0.979 10.267 1.834 13.66 2.544 11.428 2.324 24.461 6.163 39.105 11.518 14.642 5.359 24.55 8.122 29.729 8.3 5 0.176 9.775-0.849 14.33-3.082 4.553-2.228 8.436-4.774 11.651-7.631 3.212-2.858 7.989-5.539 14.326-8.037 6.341-2.499 13.438-3.838 21.296-4.018 3.57-0.176 8.749-0.401 15.533-0.667 6.786-0.271 11.875-0.403 15.267-0.403 15.354 0 26.961 0.088 34.815 0.266 5.359 0.184 9.556 1.028 12.592 2.547 3.034 1.516 5.002 3.26 5.891 5.221 0.893 1.968 2.373 4.239 4.429 6.832 2.048 2.587 4.68 4.686 7.89 6.29 6.783 3.218 14.733 4.512 23.842 3.887 9.104-0.623 15.179-2.367 18.211-5.224 5-4.819 11.737-10.536 20.219-17.14 8.484-6.604 16.125-11.605 22.904-14.999 1.427-0.72 3.838-1.878 7.229-3.486 3.39-1.609 6.245-2.991 8.566-4.154 2.321-1.161 5.138-2.637 8.434-4.421 3.306-1.789 5.984-3.439 8.038-4.957 2.055-1.519 4.148-3.256 6.292-5.224 2.143-1.962 3.525-3.927 4.156-5.891 0.615-1.964 0.847-3.975 0.667-6.026-0.183-2.05-1.251-4.187-3.219-6.425zm-143.56-258.87c0.533-0.354 0.895-0.489 1.07-0.401 0.18 0.09 0.537 0.448 1.07 1.072 0.538 0.625 1.024 1.208 1.477 1.743 0.443 0.531 1.066 1.249 1.869 2.14 0.801 0.895 1.648 1.607 2.539 2.143 1.078 0.714 2.367 1.208 3.887 1.474 1.519 0.267 2.681 0.714 3.486 1.337 0.809 0.624 1.39 1.65 1.739 3.081 0.352 1.967 0.053 3.748-0.929 5.355-0.988 1.608-2.279 2.324-3.891 2.144-3.214-0.714-6.696-3.525-10.443-8.436-3.744-4.912-4.373-8.794-1.874-11.652zm-33.214-104.05c0.89-1.161 1.426-2.099 1.603-2.812 0.356-1.075 0.402-2.189 0.135-3.35-0.266-1.161-0.179-2.321 0.268-3.481 0.449-1.16 1.477-1.83 3.084-2.009 1.606 0 3.75 1.341 6.429 4.019 0.532 0.357 1.38 0.894 2.534 1.606 1.164 0.715 1.967 1.339 2.412 1.873 0.446 0.533 0.668 0.984 0.668 1.34-0.357 0.891-1.158 1.521-2.404 1.876-1.245 0.354-2.592 0.536-4.017 0.536s-2.234 0.089-2.41 0.267c-1.429 0.536-2.767 1.339-4.021 2.409-1.247 1.072-2.229 1.875-2.942 2.411-0.72 0.534-1.432 0.534-2.146 0-0.713-1.072-0.982-1.831-0.802-2.276 0.18-0.444 0.717-1.248 1.609-2.409zm-129.63 200.48c1.246-1.428 2.142-2.588 2.677-3.481 0.535-0.895 1.025-2.1 1.473-3.616 0.446-1.52 0.848-2.637 1.206-3.35 0.359-0.718 0.896-0.984 1.609-0.806 0.354-0.088 0.621 0.088 0.806 0.535 0.176 0.447 0.267 0.671 0.267 0.671v0.804c0 0.271-0.046 0.625-0.135 1.072-0.09 0.45-0.225 0.852-0.402 1.206-0.181 0.359-0.358 0.896-0.535 1.607-0.178 0.714-0.354 1.339-0.537 1.874-0.713 1.79-1.832 3.394-3.347 4.823-1.519 1.428-2.636 2.053-3.35 1.874-1.072-0.354-0.98-1.429 0.268-3.213zm175.16 165.26c-0.357 5.711-1.563 13.751-3.617 24.107-2.056 10.353-3.352 17.229-3.89 20.62-3.749-0.184-5.89-1.566-6.426-4.155-0.533-2.591 0-5.935 1.606-10.045 3.929-11.969 5.976-20.181 6.158-24.641 0.363-8.216-0.533-12.856-2.671-13.927-1.972-1.429-5.006 1.251-9.112 8.032-7.862 12.857-23.66 20.619-47.407 23.305-21.424 2.856-36.245-0.356-44.46-9.646-1.785-1.25-3.571-1.472-5.355-0.665-1.785 0.795-2.946 1.648-3.481 2.536-0.176 0.358 0 0.892 0.537 1.608 0.536 0.717 1.384 1.784 2.544 3.214 1.161 1.435 2.098 2.856 2.811 4.291 6.967 12.139 6.343 20.352-1.873 24.637 0-8.208-0.625-14.504-1.874-18.876-1.25-4.376-3.748-9.194-7.5-14.466-3.748-5.266-6.337-9.24-7.764-11.917 5.355-0.533 9.417-2.589 12.186-6.16 2.768-3.571 4.017-7.41 3.75-11.516-0.269-4.11-1.83-7.504-4.687-10.181-1.607-1.605-9.912-8.438-24.91-20.49-14.997-12.052-24.284-20.132-27.853-24.238-0.718-0.716-2.858-2.501-6.43-5.358-3.573-2.856-5.806-5.355-6.697-7.5-8.216-18.025-9.106-32.854-2.68-44.454l1.07-1.34c0.892-0.176 0.981 1.428 0.267 4.823-1.07 5.001-1.426 9.996-1.07 14.998 0.713 11.252 3.928 19.643 9.641 25.174 3.752 3.757 6.339 3.487 7.769-0.801 1.072-1.431 1.562-6.696 1.472-15.808-0.085-9.102 0.047-15.262 0.405-18.479 1.429-10.177 5.671-22.768 12.723-37.761 7.052-15.001 12.635-23.037 16.741-24.107-3.215-5.178-4.241-10.803-3.08-16.875 1.158-6.071 3.037-11.253 5.624-15.535 2.586-4.284 5.224-9.237 7.899-14.863 2.679-5.626 4.019-10.671 4.019-15.135 0-1.247 0.091-2.142 0.27-2.678 0.535-1.606 2.768 0.357 6.696 5.892 7.5 11.072 13.124 17.592 16.875 19.555 3.928 2.14 8.301 2.052 13.123-0.27 4.82-2.321 10.756-6.161 17.811-11.517 7.051-5.354 13.077-9.284 18.078-11.781 0.54-0.182 1.386-0.583 2.551-1.207 1.154-0.621 2.047-1.071 2.67-1.341 0.621-0.267 1.426-0.667 2.411-1.204 0.976-0.535 1.733-0.982 2.27-1.34 0.536-0.359 1.073-0.762 1.605-1.208 0.532-0.448 0.889-0.891 1.073-1.339 0.179-0.446 0.268-0.847 0.268-1.205-0.358-1.608-1.115-2.592-2.279-2.946-1.161-0.356-2.721-0.135-4.687 0.672-1.964 0.804-4.154 1.876-6.562 3.213-2.407 1.34-5.085 2.857-8.032 4.554-2.945 1.697-5.938 3.258-8.971 4.688-3.034 1.43-6.25 2.679-9.643 3.751-3.393 1.07-6.606 1.697-9.641 1.876-7.5 0.179-13.479-1.781-17.942-5.892-2.857-2.682-4.373-4.377-4.554-5.091-0.18-0.711 0.625-0.89 2.41-0.535 9.646 1.25 16.696 1.427 21.161 0.535 4.642-0.711 10.891-2.768 18.749-6.16 1.608-0.713 5.667-2.456 12.19-5.224 6.514-2.764 11.561-4.684 15.131-5.756 2.147-0.537 3.621-1.384 4.425-2.545 0.799-1.16 1.069-2.232 0.799-3.216-0.266-0.98-0.847-1.738-1.737-2.273-1.969-1.072-3.752-0.356-5.354 2.143-0.896 1.606-2.774 3.172-5.629 4.688-2.854 1.52-5.492 2.678-7.9 3.481-2.411 0.802-5.491 1.74-9.242 2.811-3.752 1.072-5.802 1.697-6.161 1.875-9.82 3.034-18.926 4.375-27.319 4.017-3.929-0.177-7.097-0.759-9.506-1.741-2.411-0.979-4.065-2.14-4.956-3.481-0.894-1.337-2.321-3.034-4.285-5.089-1.966-2.054-4.199-3.794-6.697-5.225-1.785-0.892-2.457-2.498-2.009-4.819 0.447-2.321 1.831-4.734 4.151-7.233 0.178-0.18 2.009-1.293 5.49-3.348s5.937-4.153 7.368-6.296c1.604-2.499 4.373-5.091 8.3-7.77 0.178-0.713 0.313-2.677 0.402-5.891 0.088-3.212-0.759-6.694-2.544-10.444-1.786-3.752-4.198-5.624-7.233-5.624-4.287-0.178-7.321 1.07-9.106 3.75-1.786 2.675-2.587 5.98-2.41 9.908 0.182 3.392 1.029 6.38 2.544 8.972 1.519 2.591 2.903 3.887 4.153 3.887 1.962-0.182 2.587 0.53 1.873 2.14-1.07 1.966-2.501 3.219-4.285 3.752-1.253 0.354-2.638-0.85-4.153-3.617-1.519-2.768-2.678-6.113-3.481-10.043-0.802-3.929-1.117-7.231-0.936-9.912 0.354-5.536 1.827-10.848 4.417-15.938 2.591-5.088 6.296-7.545 11.115-7.368 5 0.182 9.021 3.219 12.055 9.109 3.038 5.892 4.465 13.931 4.287 24.107 0.537 1.25 1.919 1.697 4.153 1.338 2.228-0.357 5.176-0.403 8.836-0.135 3.658 0.267 6.291 1.203 7.899 2.811 0.181 0 0.271-1.342 0.271-4.018-3.215-22.495 4.73-34.46 23.837-35.89 2.852 0.537 5.263 1.208 7.225 2.009 1.971 0.802 4.061 2.145 6.295 4.019 2.237 1.873 4.105 4.596 5.625 8.169 1.518 3.575 2.725 8.039 3.617 13.394v9.908c0 5.713-1.165 8.929-3.486 9.644-3.747 1.248-6.422 1.205-8.026-0.136-1.61-1.341-1.435-3.704 0.532-7.098 1.784-4.463 1.428-9.646-1.073-15.537-2.497-5.891-7.053-8.569-13.656-8.033-4.466 0.179-7.681 2.59-9.645 7.231-1.965 4.643-2.677 9.196-2.142 13.66 0.536 4.464 1.516 6.785 2.948 6.962 1.069 0.182 4.243 1.608 9.51 4.288 5.274 2.678 9.246 4.284 11.92 4.819 6.964 1.426 10.931 3.659 11.916 6.696 0.982 3.038 0.581 7.455-1.202 13.258-1.789 5.806-2.322 10.578-1.603 14.33 0.713 3.933 2.054 7.499 4.02 10.714 1.965 3.217 4.057 6.16 6.292 8.841 2.23 2.673 4.861 7.677 7.903 14.995 3.032 7.323 5.799 16.518 8.296 27.589 0.177 0.179 0.845 0.804 2.009 1.876 1.161 1.07 2.317 2.408 3.483 4.016 1.165 1.608 2.545 3.795 4.153 6.563 1.605 2.77 3.352 6.831 5.226 12.189 1.869 5.355 3.617 11.521 5.221 18.479 1.966 8.22 2.992 17.764 3.081 28.663 0.092 10.89 0.803 18.345 2.145 22.364 1.343 4.022 4.778 5.672 10.312 4.957 6.965-0.356 11.434-4.106 13.389-11.25 5.895-20.714 1.079-45.536-14.459-74.459-5.894-11.25-10.98-18.661-15.27-22.23 6.248 3.57 12.679 10.264 19.29 20.088 6.607 9.822 10.8 19.021 12.584 27.586 0.174 0.896 0.669 3.262 1.47 7.098 0.803 3.84 1.251 6.074 1.336 6.697 0.088 0.626 0.45 2.456 1.069 5.49 0.629 3.036 0.938 5.003 0.938 5.895 0 0.896 0.086 2.635 0.27 5.224 0.182 2.587 0.134 4.596-0.136 6.025-0.27 1.431-0.533 3.352-0.803 5.757-0.27 2.41-0.713 4.732-1.339 6.966-0.616 2.232-1.288 4.691-2.003 7.366 9.817 4.285 14.729 8.032 14.729 11.249-3.747-3.037-9.108-5.043-16.074-6.017-6.969-0.985-13.433-0.049-19.417 2.81-5.984 2.857-9.066 7.586-9.247 14.188-6.426 0-10.983 1.606-13.656 4.827-3.929 4.639-5.979 10.931-6.158 18.881-0.178 7.941 0.485 16.606 2.004 25.975 1.52 9.373 2.099 15.931 1.739 19.684zm-112.22-310.43c-0.537-0.176-0.982-0.716-1.336-1.606 0-1.604 0.801-2.233 2.409-1.874 1.072 0.354 2.101 1.695 3.081 4.017 0.982 2.32 1.206 5 0.671 8.036 0 0.535-0.267 0.806-0.806 0.801-1.966 0-2.68-1.784-2.143-5.354 0.534-2.68-0.091-4.02-1.876-4.02zm69.372 4.288l-0.532 0.803c-1.427 0.891-2.134 1.07-2.134 0.536-0.721-4.824-2.326-7.591-4.824-8.306l-1.072-0.535c-1.252-1.072-0.629-1.697 1.869-1.875 0.534-0.18 1.337 0.087 2.41 0.802 1.072 0.716 2.055 1.832 2.947 3.35 0.89 1.52 1.336 3.258 1.336 5.225z"/>
		<path d="m214.03 114.1c0 1.072 0.449 1.519 1.342 1.342 0.713 0 1.468-0.85 2.274-2.546 0.804-1.692 2.189-2.629 4.151-2.811v-3e-3h-2.679c-3.391 0.537-5.088 1.876-5.088 4.018z"/>
		<path d="m237.33 110.89c1.785-0.537 3.35-0.132 4.688 1.207 1.337 1.337 2.366 1.919 3.081 1.738 1.068-0.532 1.337-1.339 0.801-2.409-1.427-2.322-4.282-2.5-8.57-0.536z"/>
	</g>
</svg>
