<svg xmlns="http://www.w3.org/2000/svg" xmlns:xlink="http://www.w3.org/1999/xlink" width="12" height="16" viewBox="0 0 12 16"><defs><path id="xd37a" d="M1298.883 718.48c-.597.352-.31 1.146.045 1.923.005.037 1.724 2.928 1.74 2.938.888 1.203 1.37 1.756 1.94 1.42l2.418 4.083c-.684.422-4.096.68-7.681-5.548-3.404-5.91-1.585-8.518-.942-9zm7.616 9.505l-1.156.682-2.424-4.094 1.156-.684a.528.528 0 0 1 .722.184l1.889 3.183v.003a.526.526 0 0 1-.185.725zm-6.143-10.373c0 .002-1.157.682-1.157.682l-2.478-4.186 1.157-.683a.526.526 0 0 1 .722.185l1.943 3.274-.001.003c.142.24.08.566-.186.723z"/></defs><g><g transform="translate(-1295 -713)"><use fill="#7f8890" xlink:href="#xd37a"/></g></g></svg>