<svg xmlns="http://www.w3.org/2000/svg" xmlns:xlink="http://www.w3.org/1999/xlink" width="36" height="36" viewBox="0 0 36 36"><defs><path id="outma" d="M1113.732 359.72v3.19c0 .382-.257.637-.643.637h-3.214c-.386 0-.643-.255-.643-.638v-3.19c0-.382.257-.637.643-.637h3.214c.386 0 .643.255.643.638zm-1.286.638h-1.928v1.913h1.928zm7.072-.638v3.19c0 .382-.257.637-.643.637h-3.214c-.386 0-.643-.255-.643-.638v-3.19c0-.382.257-.637.643-.637h3.214c.386 0 .643.255.643.638zm-1.286.638h-1.928v1.913h1.928zm7.072-.638v3.19c0 .382-.258.637-.643.637h-3.215c-.385 0-.643-.255-.643-.638v-3.19c0-.382.258-.637.643-.637h3.215c.385 0 .642.255.642.638zm-1.286.638h-1.929v1.913h1.929zm-10.286 5.103v3.19c0 .383-.257.638-.643.638h-3.214c-.386 0-.643-.255-.643-.638v-3.19c0-.383.257-.638.643-.638h3.214c.386 0 .643.255.643.638zm-1.286.638h-1.928v1.914h1.928zm7.072-.638v3.19c0 .383-.257.638-.643.638h-3.214c-.386 0-.643-.255-.643-.638v-3.19c0-.383.257-.638.643-.638h3.214c.386 0 .643.255.643.638zm-1.286.638h-1.928v1.914h1.928zm7.072-.638v3.19c0 .383-.258.638-.643.638h-3.215c-.385 0-.643-.255-.643-.638v-3.19c0-.383.258-.638.643-.638h3.215c.385 0 .642.255.642.638zm-1.286.638h-1.929v1.914h1.929zm-10.286 5.104v3.19c0 .382-.257.637-.643.637h-3.214c-.386 0-.643-.255-.643-.638v-3.19c0-.382.257-.638.643-.638h3.214c.386 0 .643.256.643.639zm-1.286.637h-1.928v1.914h1.928zm7.072-.637v3.19c0 .382-.257.637-.643.637h-3.214c-.386 0-.643-.255-.643-.638v-3.19c0-.382.257-.638.643-.638h3.214c.386 0 .643.256.643.639zm-1.286.637h-1.928v1.914h1.928zm7.072-.637v3.19c0 .382-.258.637-.643.637h-3.215c-.385 0-.643-.255-.643-.638v-3.19c0-.382.258-.638.643-.638h3.215c.385 0 .642.256.642.639zm-1.286.637h-1.929v1.914h1.929zm-10.286 5.104v3.19c0 .382-.257.637-.643.637h-3.214c-.386 0-.643-.255-.643-.638v-3.19c0-.382.257-.637.643-.637h3.214c.386 0 .643.255.643.638zm-1.286.638h-1.928v1.914h1.928zm7.072-.638v3.19c0 .382-.257.637-.643.637h-3.214c-.386 0-.643-.255-.643-.638v-3.19c0-.382.257-.637.643-.637h3.214c.386 0 .643.255.643.638zm-1.286.638h-1.928v1.914h1.928zm7.072-.638v3.19c0 .382-.258.637-.643.637h-3.215c-.385 0-.643-.255-.643-.638v-3.19c0-.382.258-.637.643-.637h3.215c.385 0 .642.255.642.638zm-1.286.638h-1.929v1.914h1.929zm1.41-25.624h.643c1.093 0 1.929.423 1.929 1.507v29.621c0 1.084-.836 1.914-1.929 1.914h-32.143c-1.092 0-1.928-.83-1.928-1.914v-29.62c0-1.085.836-1.914 1.928-1.914h1.08v-.638c0-1.085.837-1.914 1.93-1.914h8.562c1.093 0 1.491 1.235 1.491 2.32v.638h2.366zm-18.442 1.026v1.976h20.01v-1.339c0-.382-.258-.637-.643-.637zm-11.004 27.275c0 .382.257.637.643.637h8.75c.386 0 .643-.255.643-.637v-29.595c0-.383-.257-.638-.643-.638h-8.75c-.386 0-.643.255-.643.638zm-3.009-25.518h2.036v-1.914h-1.393c-.386 0-.643.256-.643.638zm14.018 1.276v24.054c0 1.084-.836 1.914-1.929 1.914h-8.562c-1.093 0-1.491-.83-1.491-1.914v-24.054h-2.036v27.35c0 .383.257.638.643.638h32.737c.385 0 .642-.255.642-.638v-27.35z"/></defs><g><g transform="translate(-1092 -349)"><use fill="#b0abb3" xlink:href="#outma"/></g></g></svg>