<svg xmlns="http://www.w3.org/2000/svg" xmlns:xlink="http://www.w3.org/1999/xlink" width="10" height="16" viewBox="0 0 10 16"><defs><path id="fcota" d="M1300.998 844.04c2.551 0 3.986-1.038 3.986-4.67l.004-1.41h.974l-.005 1.796c0 2.748-1.128 4.889-3.963 5.265l.004 2.941 2.026 1.045h-6.03l2.017-1.064-.004-2.955c-2.831-.38-4.034-2.487-4.034-5.232l.002-1.796h1.037l-.001 1.41c0 3.508 1.436 4.67 3.987 4.67h-.004m.006-11.076h.002c2.073 0 2.93 1.21 2.93 3.145v3.785c0 1.935-.857 3.113-2.93 3.113H1301c-2.072 0-2.959-1.178-2.959-3.113v-3.785c0-1.935.887-3.145 2.959-3.145z"/></defs><g><g transform="translate(-1296 -833)"><use fill="#7f8890" xlink:href="#fcota"/></g></g></svg>