<svg xmlns="http://www.w3.org/2000/svg" xmlns:xlink="http://www.w3.org/1999/xlink" width="21" height="36" viewBox="0 0 21 36"><defs><path id="r6b3a" d="M703.013 368.259v8.678c0 1.505 1.592 3.041 3.118 3.041h8.894c1.526 0 2.952-1.536 2.952-3.04v-8.352c1.891 1.929 3.023 4.577 3.023 7.52 0 3.728-1.924 6.997-4.81 8.894h-11.38a10.588 10.588 0 0 1-4.81-8.894c0-3.106.89-5.918 3.013-7.847zm12.977-17.101v25.123c0 1.014-.796 1.7-1.56 1.7l-7.674.032c-.796 0-1.758-.622-1.758-1.7v-23.26c0-1.34.63-2.056 1.758-2.056l6.232-.031s.1-.953.233-1.28c.166-.425.464-.686.763-.686h1.01c.167 0 .366.098.498.261.233.262.399.654.465 1.178.033.196.033.686.033.719zm-.994 15.812H713v2.027h1.995zm0 3.026H713v1.996h1.995zm-9.033-1h2.026v-2.026h-2.026zm3.035-2.993h2.994v-2.996h-2.994zm2.958-3.994h3.042v-.998h-3.042zm-2.958 4.961v2.027h2.994v-2.027zm-3.035 4.99h2.026v-1.997h-2.026zm3.035 0h2.994v-1.997h-2.994zm5.235-5.925h.73v-1.654c0-.752-.767-1.374-1.597-1.374h-.398v2.996h1.265zm-8.272-12.668v5.275c0 .752.697 1.374 1.526 1.374h5.984c.863 0 1.527-.622 1.527-1.374v-5.275c0-.753-.697-1.374-1.527-1.374h-5.95c-.863 0-1.527.622-1.527 1.374zm.028 8.642h3.012v-.998h-3.012zm.007 2.339v1.622h2.026v-2.995h-.597c-.83 0-1.462.62-1.462 1.373zm1.395 11.667h.598v-3.024h-2.026v1.684c0 .752.632 1.34 1.428 1.34zm1.607 0h2.994v-3.057h-2.994zm5.998-3.057H713v3.09h.398c.83 0 1.597-.621 1.597-1.373z"/></defs><g><g transform="translate(-700 -349)"><use fill="#b0abb3" xlink:href="#r6b3a"/></g></g></svg>