<svg xmlns="http://www.w3.org/2000/svg" xmlns:xlink="http://www.w3.org/1999/xlink" width="12" height="19" viewBox="0 0 12 19"><defs><path id="grwga" d="M1296.988 559.464v4.976c0 .863.913 1.556 1.788 1.556h4.536c.875 0 1.693-.693 1.693-1.556v-4.788c1.085 1.106 2.046 2.625 2.046 4.312 0 2.137-1.103 3.918-2.758 5.005h-6.525c-1.654-1.068-2.758-2.868-2.758-5.005 0-1.781.76-3.393 1.978-4.5zm6.972 4.569c0 .58-.457.975-.894.975l-4.088.018c-.457 0-1.008-.357-1.008-.975v-11.836c0-.77.361-1.18 1.008-1.18l3.98-.017.039-1.002h.986zm-.945-5.057h-1.019v1.037h1.019zm0 1.984h-1.019v1.05h1.019zm-4.055-.947h1.037v-1.006h-1.037zm0 1.98h1.037v-.989h-1.037zm3.617-3.991l.419-.031v-1.23a.767.767 0 0 0-.79-.788h-.229v2.062l.6-.032zm-3.618-5.17v1.338c0 .43.4.787.875.787h2.275c.495 0 .876-.356.876-.787v-1.338c0-.431-.4-.787-.876-.787h-2.256c-.494 0-.875.356-.875.787zm.02 3.921v1.243h1.037v-2.03h-.342c-.476 0-.713.356-.713.787zm.676 7.127h.342v-.89h-1.037v.153c0 .431.238.737.695.737zm3.36-.877h-1.019v1.021h.228c.476 0 .79-.325.79-.756z"/></defs><g><g transform="translate(-1295 -550)"><use fill="#7f8890" xlink:href="#grwga"/></g></g></svg>