<svg xmlns="http://www.w3.org/2000/svg" xmlns:xlink="http://www.w3.org/1999/xlink" width="12" height="11" viewBox="0 0 12 11"><defs><path id="iaq5a" d="M1307.012 637.84v7.338c0 .456-.337.827-.79.827h-7.985a.274.274 0 0 1-.273-.276v-1.77h1.025v1.047h6.724a.275.275 0 0 0 .273-.275v-6.484a.275.275 0 0 0-.273-.276h-8.718V639h.992v.989h-.992v.968h.992v1.019h-.992v4.996h-.994v-9.985h-.978l-.01-.988h1.677c.151 0 .305.123.305.276v.738h9.227c.453 0 .79.37.79.827zm-2.001 4.163v1.718a.274.274 0 0 1-.274.275h-3.452a.274.274 0 0 1-.274-.275v-2.446c0-.152.123-.275.274-.275h1.703l.023.988h-1.026v.968h2.01v-.953zm-.023-2.013h-3.985v-.988h3.985z"/></defs><g><g transform="translate(-1295 -636)"><use fill="#7f8890" xlink:href="#iaq5a"/></g></g></svg>