<?xml version="1.0"?>
<svg xmlns="http://www.w3.org/2000/svg" xmlns:xlink="http://www.w3.org/1999/xlink" version="1.1" id="Capa_1" x="0px" y="0px" viewBox="0 0 368.707 368.707" style="enable-background:new 0 0 368.707 368.707;" xml:space="preserve" width="512px" height="512px" class=""><g><g>
	<g>
		<path d="M128.793,57.294c2.614-2.036,3.083-5.806,1.046-8.421c-2.036-2.614-5.806-3.083-8.421-1.046    c-0.527,0.411-0.982,0.906-1.346,1.467c-22.76,24.303-22.76,62.097,0,86.4c1.157,1.116,2.713,1.721,4.32,1.68    c3.314,0,6-2.686,6.001-5.999c0-1.513-0.572-2.971-1.601-4.081C110.352,107.604,110.352,76.984,128.793,57.294z" data-original="#000000" class="active-path" data-old_color="#b0abb3" fill="#b0abb3"/>
	</g>
</g><g>
	<g>
		<path d="M101.259,151.161c-0.364-0.56-0.818-1.056-1.346-1.467c-30.005-32.077-30.005-81.923,0-114    c2.614-2.036,3.082-5.806,1.046-8.421s-5.806-3.083-8.421-1.046c-0.527,0.411-0.982,0.906-1.346,1.467    c-34.074,36.635-34.074,93.365,0,130c1.804,2.78,5.52,3.57,8.299,1.766C102.272,157.656,103.063,153.94,101.259,151.161z" data-original="#000000" class="active-path" data-old_color="#b0abb3" fill="#b0abb3"/>
	</g>
</g><g>
	<g>
		<path d="M71.113,11.214c2.614-2.036,3.083-5.806,1.046-8.421c-2.036-2.614-5.806-3.082-8.421-1.046    c-0.527,0.411-0.982,0.906-1.346,1.467c-47.115,50.35-47.115,128.61,0,178.96c1.195,1.029,2.747,1.546,4.32,1.44    c3.313-0.078,5.935-2.826,5.857-6.139c-0.033-1.391-0.548-2.728-1.457-3.781C28.327,127.984,28.327,56.924,71.113,11.214z" data-original="#000000" class="active-path" data-old_color="#b0abb3" fill="#b0abb3"/>
	</g>
</g><g>
	<g>
		<path d="M248.794,49.374c-1.804-2.78-5.52-3.57-8.299-1.766c-2.78,1.804-3.57,5.52-1.766,8.299    c0.364,0.56,0.818,1.056,1.346,1.467c18.441,19.69,18.441,50.31,0,70c-2.221,2.398-2.115,6.133,0.24,8.4    c2.343,2.34,6.138,2.34,8.48,0C271.553,111.471,271.553,73.678,248.794,49.374z" data-original="#000000" class="active-path" data-old_color="#b0abb3" fill="#b0abb3"/>
	</g>
</g><g>
	<g>
		<path d="M277.513,27.214c-2.614-2.036-6.384-1.568-8.421,1.046c-1.571,2.017-1.692,4.809-0.299,6.954    c30.005,32.077,30.005,81.923,0,114c-2.275,2.408-2.167,6.204,0.24,8.48c2.343,2.34,6.137,2.34,8.48,0    C311.887,120.992,311.887,63.916,277.513,27.214z" data-original="#000000" class="active-path" data-old_color="#b0abb3" fill="#b0abb3"/>
	</g>
</g><g>
	<g>
		<path d="M306.313,2.734c-1.804-2.78-5.52-3.57-8.299-1.766s-3.57,5.52-1.766,8.299c0.364,0.56,0.819,1.056,1.346,1.467    c43.087,45.776,43.087,117.184,0,162.96c-2.614,2.036-3.083,5.806-1.046,8.421c2.036,2.614,5.806,3.083,8.421,1.046    c0.527-0.411,0.982-0.906,1.346-1.467C353.429,131.344,353.429,53.084,306.313,2.734z" data-original="#000000" class="active-path" data-old_color="#b0abb3" fill="#b0abb3"/>
	</g>
</g><g>
	<g>
		<path d="M283.034,360.974l-62.24-209.28c-0.747-2.56-3.093-4.32-5.76-4.32h-26.72v-16.96    c21.171-3.314,35.647-23.162,32.333-44.333c-3.314-21.171-23.162-35.647-44.333-32.333c-21.171,3.314-35.647,23.162-32.333,44.333    c2.607,16.658,15.675,29.726,32.333,32.333v16.96h-26.8c-2.667,0-5.013,1.76-5.76,4.32l-62.16,209.28    c-0.95,3.181,0.859,6.53,4.04,7.48c3.181,0.95,6.53-0.859,7.48-4.04l24.72-83.2h128.96l24.72,83.2    c0.95,3.181,4.299,4.99,7.48,4.04C282.175,367.504,283.983,364.155,283.034,360.974z M155.514,92.334    c0-14.801,11.999-26.8,26.8-26.8c14.801,0,26.8,11.999,26.8,26.8c0,14.801-11.999,26.8-26.8,26.8    C167.512,119.134,155.514,107.135,155.514,92.334z M153.993,159.374h56.56h0.08l16.8,56.64h-90.24L153.993,159.374z     M121.433,269.214l12.24-41.2h97.36l12.24,41.2H121.433z" data-original="#000000" class="active-path" data-old_color="#b0abb3" fill="#b0abb3"/>
	</g>
</g></g> </svg>
