<svg xmlns="http://www.w3.org/2000/svg" xmlns:xlink="http://www.w3.org/1999/xlink" width="36" height="34" viewBox="0 0 36 34"><defs><path id="s30ma" d="M1028 366.419c0 3.193-2.626 5.791-5.853 5.791h-8.013a2.47 2.47 0 0 1-2.38 1.79h-2.411c-1.362 0-2.47-1.096-2.47-2.444 0-1.348 1.108-2.444 2.47-2.444h2.412a2.47 2.47 0 0 1 2.38 1.79h8.012c2.498 0 4.53-2.011 4.53-4.483v-.476c-.66.56-1.515.898-2.45.898h-2.938a1.579 1.579 0 0 1-1.585-1.569v-10.3c0-.866.71-1.57 1.585-1.57h2.938c.934 0 1.79.34 2.45.899v-.887c0-5.59-4.283-10.228-9.843-10.778a1.87 1.87 0 0 1-1.686 1.059h-10.297a1.87 1.87 0 0 1-1.685-1.059c-5.56.55-9.844 5.189-9.844 10.778v.887a3.78 3.78 0 0 1 2.451-.898h2.938c.874 0 1.585.703 1.585 1.568v10.301c0 .865-.711 1.57-1.585 1.57h-2.938c-2.08 0-3.773-1.676-3.773-3.734v-9.694c0-6.273 4.815-11.478 11.06-12.082a1.866 1.866 0 0 1 1.791-1.332h10.297c.85 0 1.566.563 1.792 1.332 6.245.604 11.06 5.808 11.06 12.082zm-29.29-11.708h-.262v10.822h.263a.262.262 0 0 0 .263-.26V354.97a.262.262 0 0 0-.263-.26zm-5.388 2.425v5.972c0 1.337 1.1 2.425 2.451 2.425h1.352V354.71h-1.352c-1.351 0-2.45 1.088-2.45 2.425zm22.371-15.289a.543.543 0 0 0-.545-.539h-10.297c-.3 0-.544.242-.544.54 0 .296.244.538.544.538h10.297c.3 0 .545-.242.545-.539zm5.596 23.686h.263V354.71h-.263a.262.262 0 0 0-.263.26v10.301c0 .144.118.26.263.26zm-8.387 6.023c0-.626-.514-1.135-1.147-1.135h-2.412c-.633 0-1.148.509-1.148 1.135s.515 1.135 1.148 1.135h2.412c.633 0 1.147-.509 1.147-1.135zm13.776-8.448v-5.972c0-1.337-1.1-2.425-2.451-2.425h-1.353v10.822h1.353c1.351 0 2.45-1.088 2.45-2.425z"/></defs><g><g transform="translate(-992 -340)"><use fill="#b0abb3" xlink:href="#s30ma"/></g></g></svg>