<svg xmlns="http://www.w3.org/2000/svg" xmlns:xlink="http://www.w3.org/1999/xlink" width="12" height="14" viewBox="0 0 12 14"><defs><path id="c7yba" d="M1306.04 605.999h-10.08c-.53 0-.96-.42-.96-.938v-11.25c0-.517.43-.937.96-.937v11.25c0 .518.43.937.96.937h1.92c.53 0 1.147-.419 1.147-.937v-11.157h6.053c.53 0 .96.42.96.938v11.156c0 .519-.43.938-.96.938zm-3.025-2.031h.96v-.97h-.96zm0-1.97h.96v-1.031h-.96zm0-2.03h.96v-.969h-.96zm-2.003 4h.96v-.97h-.96zm0-1.97h.96v-1.031h-.96zm0-2.03h.96v-.969h-.96zm5.028-5.532a.475.475 0 0 0-.48-.468h-4.32c-.265 0-.293.21-.293.468v2.062c0 .26.028.47.293.47h4.32c.265 0 .48-.21.48-.47zm-.063 4.563h-.991v.969h.991zm0 1.968h-.991v1.031h.991zm0 2.032h-.991v.969h.991zm-7.45 1h-1.076a.475.475 0 0 1-.48-.47v-11.062c0-.259.215-.469.48-.469h1.076c.265 0 .48.21.48.47v11.062c0 .258-.215.469-.48.469z"/></defs><g><g transform="translate(-1295 -592)"><use fill="#7f8890" xlink:href="#c7yba"/></g></g></svg>