<svg xmlns="http://www.w3.org/2000/svg" xmlns:xlink="http://www.w3.org/1999/xlink" width="36" height="34" viewBox="0 0 36 34"><defs><path id="jco6a" d="M811.987 352.437v-5.758c0-.336.27-.608.6-.608H824.4c.332 0 .6.272.6.608v5.758a.603.603 0 0 1-.6.608h-11.813a.603.603 0 0 1-.6-.608zm1.013-.42h10.987v-4.981H813zm2.525 3.769V357c0 .67-.538 1.214-1.2 1.214h-1.2c-.662 0-1.2-.544-1.2-1.214v-1.214c0-.67.538-1.215 1.2-1.215h1.2c.662 0 1.2.545 1.2 1.215zm-1.2 1.214v-1.214h-1.2V357zm6-1.214V357c0 .67-.538 1.214-1.2 1.214h-1.2c-.662 0-1.2-.544-1.2-1.214v-1.214c0-.67.538-1.215 1.2-1.215h1.2c.662 0 1.2.545 1.2 1.215zm-1.2 1.214v-1.214h-1.2V357zm6-1.214V357c0 .67-.538 1.214-1.2 1.214h-1.2c-.662 0-1.2-.544-1.2-1.214v-1.214c0-.67.538-1.215 1.2-1.215h1.2c.662 0 1.2.545 1.2 1.215zm-1.2 1.214v-1.214h-1.2V357zm-8.4 3.643v1.214c0 .67-.538 1.214-1.2 1.214h-1.2c-.662 0-1.2-.544-1.2-1.214v-1.214c0-.67.538-1.215 1.2-1.215h1.2c.662 0 1.2.545 1.2 1.215zm-1.2 1.214v-1.214h-1.2v1.214zm6-1.214v1.214c0 .67-.538 1.214-1.2 1.214h-1.2c-.662 0-1.2-.544-1.2-1.214v-1.214c0-.67.538-1.215 1.2-1.215h1.2c.662 0 1.2.545 1.2 1.215zm-1.2 1.214v-1.214h-1.2v1.214zm6-1.214v1.214c0 .67-.538 1.214-1.2 1.214h-1.2c-.662 0-1.2-.544-1.2-1.214v-1.214c0-.67.538-1.215 1.2-1.215h1.2c.662 0 1.2.545 1.2 1.215zm-1.2 1.214v-1.214h-1.2v1.214zm-8.4 3.643v1.214c0 .67-.538 1.214-1.2 1.214h-1.2c-.662 0-1.2-.544-1.2-1.214V365.5c0-.67.538-1.214 1.2-1.214h1.2c.662 0 1.2.544 1.2 1.214zm-1.2 1.214V365.5h-1.2v1.214zm6-1.214v1.214c0 .67-.538 1.214-1.2 1.214h-1.2c-.662 0-1.2-.544-1.2-1.214V365.5c0-.67.538-1.214 1.2-1.214h1.2c.662 0 1.2.544 1.2 1.214zm-1.2 1.214V365.5h-1.2v1.214zm6-1.214v1.214c0 .67-.538 1.214-1.2 1.214h-1.2c-.662 0-1.2-.544-1.2-1.214V365.5c0-.67.538-1.214 1.2-1.214h1.2c.662 0 1.2.544 1.2 1.214zm-1.2 1.214V365.5h-1.2v1.214zM828 344.857v24.286a1.813 1.813 0 0 1-1.8 1.821h-21.952c-.713 1.778-2.25 3.036-4.26 3.036s-3.923-1.195-4.637-2.973H793.8c-.992 0-1.8-.88-1.8-1.884v-24.286c0-1.004.808-1.884 1.8-1.884h1.551c.714-1.778 2.626-2.973 4.636-2.973 2.01 0 3.548 1.257 4.261 3.035H826.2c.992 0 1.8.818 1.8 1.822zm-34.45 25.08h1.489a4.947 4.947 0 0 1-.039-.607v-24.723c0-.206.014-.408.039-.607h-1.49c-.33 0-.599.272-.599.607v24.723c0 .335.27.607.6.607zm10.316.276a.568.568 0 0 1 .014-.05c.094-.323.082-.666.082-1.02v-24.286a3.67 3.67 0 0 0-.158-1.07c-.453-1.488-2.2-2.823-3.817-2.823s-3.363 1.335-3.816 2.823a3.67 3.67 0 0 0-.159 1.07v24.286a3.67 3.67 0 0 0 .16 1.07c.452 1.488 2.198 2.823 3.815 2.823 1.618 0 3.426-1.335 3.88-2.823zm23.121-.82v-24.786a.604.604 0 0 0-.6-.607h-21.45c.024.199.038.401.038.607v24.786c0 .205-.014.408-.039.607h21.451c.331 0 .6-.272.6-.607z"/></defs><g><g transform="translate(-792 -340)"><use fill="#b0abb3" xlink:href="#jco6a"/></g></g></svg>