<svg xmlns="http://www.w3.org/2000/svg" xmlns:xlink="http://www.w3.org/1999/xlink" width="36" height="25" viewBox="0 0 36 25"><defs><path id="evqda" d="M527.746 363.078a.66.66 0 0 1-.924 0c-4.486-4.387-10.46-6.803-16.822-6.803-6.362 0-12.336 2.416-16.822 6.804a.663.663 0 0 1-.924 0 .629.629 0 0 1 0-.904c4.733-4.63 11.035-7.177 17.746-7.177 6.71 0 13.013 2.549 17.746 7.177a.628.628 0 0 1 0 .903zm-3.841 2.853a.628.628 0 0 1 0 .903.663.663 0 0 1-.924 0c-7.158-7-18.805-7-25.963 0a.66.66 0 0 1-.923 0 .628.628 0 0 1 0-.903c7.667-7.5 20.143-7.498 27.81 0zm-3.84 3.756a.629.629 0 0 1 0 .904.659.659 0 0 1-.463.187.659.659 0 0 1-.462-.187c-2.437-2.383-5.683-3.696-9.14-3.696-3.457 0-6.703 1.313-9.14 3.696a.663.663 0 0 1-.924 0 .629.629 0 0 1 0-.904c2.684-2.625 6.258-4.07 10.064-4.07s7.38 1.445 10.064 4.07zm-5.784 6.128c0 2.308-1.92 4.187-4.281 4.187-2.36 0-4.28-1.878-4.28-4.187s1.92-4.187 4.28-4.187c2.36 0 4.28 1.878 4.28 4.187zm-1.307 0c0-1.605-1.335-2.91-2.974-2.91-1.64 0-2.974 1.306-2.974 2.91 0 1.603 1.334 2.908 2.974 2.908 1.64 0 2.974-1.305 2.974-2.909z"/></defs><g><g transform="translate(-492 -355)"><use fill="#b0abb3" xlink:href="#evqda"/></g></g></svg>