<svg xmlns="http://www.w3.org/2000/svg" xmlns:xlink="http://www.w3.org/1999/xlink" width="12" height="9" viewBox="0 0 12 9"><defs><path id="8qqea" d="M1307 477.7a.403.403 0 0 1-.138.314l-.647.63a.454.454 0 0 1-.646 0A6.536 6.536 0 0 0 1301 476.8c-1.8 0-3.415.72-4.57 1.845a.454.454 0 0 1-.645 0l-.647-.63a.403.403 0 0 1-.138-.315c0-.135.046-.225.138-.315 1.477-1.485 3.554-2.386 5.862-2.386 2.308 0 4.338.9 5.862 2.386.092.045.138.18.138.315zm-2.77 2.205c.185.18.185.45 0 .63l-.645.63a.454.454 0 0 1-.647 0c-.507-.45-1.2-.765-1.938-.765-.739 0-1.43.27-1.939.764a.454.454 0 0 1-.646 0l-.646-.63a.428.428 0 0 1 0-.63A4.55 4.55 0 0 1 1301 478.6c1.292 0 2.4.495 3.23 1.306zm-3.23 2.294c.51 0 .923.403.923.9 0 .498-.413.9-.923.9a.912.912 0 0 1-.923-.9c0-.497.413-.9.923-.9z"/></defs><g><g transform="translate(-1295 -475)"><use fill="#7f8890" xlink:href="#8qqea"/></g></g></svg>