<svg xmlns="http://www.w3.org/2000/svg" xmlns:xlink="http://www.w3.org/1999/xlink" width="36" height="36" viewBox="0 0 36 36"><defs><path id="yy5ha" d="M601 355.336a2.711 2.711 0 0 1-2.7 2.716 2.711 2.711 0 0 1-2.7-2.716 2.711 2.711 0 0 1 2.7-2.716c1.489 0 2.7 1.219 2.7 2.716zm-1.2 0c0-.832-.673-1.509-1.5-1.509s-1.5.677-1.5 1.509c0 .832.673 1.509 1.5 1.509s1.5-.677 1.5-1.509zm22.2-1.509c.331 0 .787.27.787.604 0 .333-.456.603-.787.603s-.6-.27-.6-.603c0-.334.269-.604.6-.604zm-2.4 0c.331 0 .6.27.6.604a.602.602 0 0 1-.6.603c-.331 0-.6-.27-.6-.603 0-.334.269-.604.6-.604zm3.787 1.81c.332 0 .6.27.6.604a.602.602 0 0 1-.6.604c-.33 0-.6-.27-.6-.604 0-.333.27-.603.6-.603zm-2.587 0c.331 0 .6.27.6.604a.602.602 0 0 1-.6.604c-.331 0-.6-.27-.6-.604 0-.333.269-.603.6-.603zm-3.6-1.81c.331 0 .6.27.6.604a.602.602 0 0 1-.6.603c-.331 0-.6-.27-.6-.603 0-.334.269-.604.6-.604zm1.2 1.81c.331 0 .6.27.6.604a.602.602 0 0 1-.6.604c-.331 0-.6-.27-.6-.604 0-.333.269-.603.6-.603zm-3.6-1.81c.331 0 .6.27.6.604a.602.602 0 0 1-.6.603c-.331 0-.6-.27-.6-.603 0-.334.269-.604.6-.604zm1.2 1.81c.331 0 .6.27.6.604a.602.602 0 0 1-.6.604c-.331 0-.6-.27-.6-.604 0-.333.269-.603.6-.603zm-3.6-1.81c.331 0 .6.27.6.604a.602.602 0 0 1-.6.603c-.331 0-.6-.27-.6-.603 0-.334.269-.604.6-.604zm1.2 1.81c.331 0 .6.27.6.604a.602.602 0 0 1-.6.604c-.331 0-.6-.27-.6-.604 0-.333.269-.603.6-.603zm13.521 5.432c.645.509.879 1.29.879 2.177v7.923c0 1.534-1.053 2.781-2.577 2.781H610.6v4.576a3.018 3.018 0 0 1 2.34 2.353h14.46c.331 0 .6.27.6.604a.602.602 0 0 1-.6.603h-14.46A3.01 3.01 0 0 1 610 384.5a3.01 3.01 0 0 1-2.94-2.414H592.6c-.331 0-.6-.27-.6-.603 0-.334.269-.604.6-.604h14.46a3.018 3.018 0 0 1 2.34-2.353v-4.576h-14.823c-1.524 0-2.577-1.247-2.577-2.781v-7.923c0-.886.234-1.668.879-2.177-.645-.51-.88-1.292-.88-2.178v-7.11c0-1.534 1.054-2.781 2.578-2.781h30.846c1.524 0 2.577 1.247 2.577 2.78v7.111c0 .886-.234 1.669-.879 2.178zM610 379.672c-.992 0-1.8.813-1.8 1.81 0 .999.808 1.811 1.8 1.811s1.8-.812 1.8-1.81-.808-1.81-1.8-1.81zm15.422-17.75h-30.845c-.863 0-1.565.706-1.565 1.574v7.86c0 .869.702 1.575 1.565 1.575h30.846c.862 0 1.564-.706 1.564-1.575v-7.86c0-.868-.702-1.574-1.565-1.574zm0-.957c.863 0 1.565-1.206 1.565-2.074v-7.298c0-.868-.702-1.574-1.565-1.574h-30.845c-.863 0-1.565.706-1.565 1.574v7.298c0 .868.702 2.074 1.565 2.074zm-29.822 5.836a2.711 2.711 0 0 1 2.7-2.715c1.489 0 2.7 1.218 2.7 2.715a2.711 2.711 0 0 1-2.7 2.716 2.711 2.711 0 0 1-2.7-2.716zm1.2 0c0 .833.673 1.51 1.5 1.51s1.5-.677 1.5-1.51c0-.832-.673-1.508-1.5-1.508s-1.5.676-1.5 1.508zm25.2-1.508c.331 0 .787.27.787.603 0 .334-.456.604-.787.604s-.6-.27-.6-.604c0-.333.269-.603.6-.603zm-2.4 0c.331 0 .6.27.6.603a.602.602 0 0 1-.6.604c-.331 0-.6-.27-.6-.604 0-.333.269-.603.6-.603zm3.787 1.81c.332 0 .6.27.6.604a.602.602 0 0 1-.6.603c-.33 0-.6-.27-.6-.603 0-.333.27-.604.6-.604zm-2.587 0c.331 0 .6.27.6.604a.602.602 0 0 1-.6.603c-.331 0-.6-.27-.6-.603 0-.333.269-.604.6-.604zm-3.6-1.81c.331 0 .6.27.6.603a.602.602 0 0 1-.6.604c-.331 0-.6-.27-.6-.604 0-.333.269-.603.6-.603zm1.2 1.81c.331 0 .6.27.6.604a.602.602 0 0 1-.6.603c-.331 0-.6-.27-.6-.603 0-.333.269-.604.6-.604zm-3.6-1.81c.331 0 .6.27.6.603a.602.602 0 0 1-.6.604c-.331 0-.6-.27-.6-.604 0-.333.269-.603.6-.603zm1.2 1.81c.331 0 .6.27.6.604a.602.602 0 0 1-.6.603c-.331 0-.6-.27-.6-.603 0-.333.269-.604.6-.604zm-3.6-1.81c.331 0 .6.27.6.603a.602.602 0 0 1-.6.604c-.331 0-.6-.27-.6-.604 0-.333.269-.603.6-.603zm1.2 1.81c.331 0 .6.27.6.604a.602.602 0 0 1-.6.603c-.331 0-.6-.27-.6-.603 0-.333.269-.604.6-.604z"/></defs><g><g transform="translate(-592 -349)"><use fill="#b0abb3" xlink:href="#yy5ha"/></g></g></svg>